<?xml version="1.0" standalone="no"?>
<!DOCTYPE svg PUBLIC "-//W3C//DTD SVG 1.1//EN" "http://www.w3.org/Graphics/SVG/1.1/DTD/svg11.dtd" >
<svg xmlns="http://www.w3.org/2000/svg">
<metadata>Generated by IcoMoon</metadata>
<defs>
<font id="icomoon" horiz-adv-x="1024">
<font-face units-per-em="1024" ascent="960" descent="-64" />
<missing-glyph horiz-adv-x="1024" />
<glyph unicode="&#x20;" horiz-adv-x="512" d="" />
<glyph unicode="&#xe900;" glyph-name="align-1" d="M1013.12 757.547h-980.907v109.867h981.333l-0.427-109.867zM433.28 266.88h-242.56v417.707h242.56zM546.56 30.72v653.867h303.573v-653.867zM606.72 630.613v-545.28h183.68v545.28z" />
<glyph unicode="&#xe901;" glyph-name="align-2" d="M192 384h-164.693v118.187h163.2v163.84h247.253v-160.427h109.013v289.067h306.56v-291.627h155.307v-116.693h-153.387v-293.76h-306.773v289.707h-108.373v-162.56h-248.107zM792.107 149.333v586.667h-183.040v-584.96z" />
<glyph unicode="&#xe902;" glyph-name="align-3" d="M24.96-5.973v113.92h981.333v-113.92zM458.24 889.173v-701.013h-302.507v701.013zM398.080 828.16h-183.68v-580.907h183.68zM808.107 632.32v-445.867h-243.627v445.867z" />
<glyph unicode="&#xe903;" glyph-name="align-4" d="M171.307 939.307v-980.907h-117.547v981.333l117.547-0.427zM696.533 785.92v-242.347h-446.933v242.347zM949.333 131.413h-699.947v303.573h699.947zM307.2 192h583.893v183.467h-583.893z" />
<glyph unicode="&#xe904;" glyph-name="align-5" d="M458.88 768v166.4h117.12v-163.2h164.267v-247.467h-160.427v-108.8h289.067v-306.773h-291.627v-155.093h-116.693v153.6h-293.76v306.56h289.707v108.16h-162.347v246.613zM224.213 167.893h586.453v184.533h-585.387z" />
<glyph unicode="&#xe905;" glyph-name="align-6" d="M831.36-41.173v980.907h109.867v-981.333l-109.867 0.427zM341.333 538.667v242.56h417.067v-242.56zM104.533 425.173h653.867v-303.36h-653.867zM704 365.227h-545.067v-183.68h545.067z" />
<glyph unicode="&#xe906;" glyph-name="align-7" d="M893.44 30.72h-744.107v259.2h-125.867v65.493h981.333v-64h-111.36zM261.547 479.36v228.907h-238.080v65.707h981.333v-64h-223.36v-230.613zM330.24 708.267v-160.853h378.667v160.853z" />
<glyph unicode="&#xe907;" glyph-name="align-8" d="M1004.8 157.653h-110.080v-110.507h-744.32v109.013h-124.587v68.267h123.52v110.507h741.973v-108.373h113.493zM256 510.933v112h-231.040v66.773h231.040v115.413h518.613v-113.92h231.68v-66.987h-230.4v-113.28zM704 577.067v160.64h-376.533v-161.707z" />
<glyph unicode="&#xe908;" glyph-name="align-9" d="M881.067 100.053h124.587v-65.28h-981.333v64h114.347v262.4h742.4zM24.533 567.68h230.187v242.987h519.040v-241.28h231.253v-68.053h-981.333zM707.2 743.253h-379.733v-159.36h378.88z" />
<glyph unicode="&#xe909;" glyph-name="align-10" d="M192 78.080v-124.587h-64v981.333h64v-114.347h262.4v-742.4zM659.84 934.4v-230.4h242.987v-518.613h-241.493v-231.467h-67.627v980.48zM835.413 251.733v379.733h-159.36v-378.667z" />
<glyph unicode="&#xe90a;" glyph-name="align-11" d="M247.253-42.667v111.147h-110.507v744.107h109.013v124.8h68.053v-122.88h110.72v-742.827h-108.373v-114.347zM600.533 706.56h112v232.107h66.773v-230.827h115.2v-519.253h-113.707v-231.253h-67.2v229.76h-113.067zM666.453 258.56h160.853v376.96h-160.853z" />
<glyph unicode="&#xe90b;" glyph-name="align-12" d="M142.507 44.373v744.96h259.2v125.013h65.707v-981.333h-64v111.36zM591.36 676.267h228.907v238.080h65.493v-981.333h-64v223.36h-230.4zM820.053 607.573h-160.853v-378.667h160.853z" />
<glyph unicode="&#xe90c;" glyph-name="nav-11" d="M64 896v-896h896v896zM848 784v-672h-2.773l-519.893 290.133-149.333-286.933v668.8z" />
<glyph unicode="&#xe90d;" glyph-name="nav-1" d="M21.333 475.52l938.667 441.813-441.813-938.667-27.52 469.333-469.333 27.52z" />
<glyph unicode="&#xe90e;" glyph-name="nav-2" d="M749.227 917.333h-546.56v-938.667h392.107v78.507h-313.813v781.653h392.107v-117.547h157.013v-431.36h78.293v472.96l-159.36 154.453zM830.080 211.413h-78.507v-78.293h-78.293v-78.507h78.293v-75.947h78.507v78.507h78.293v75.947h-78.293z" />
<glyph unicode="&#xe90f;" glyph-name="nav-3" d="M536.533-17.28c-117.333 0-234.667 0-352 0-81.92 0-115.2 33.707-115.413 115.2v711.68c0 77.44 33.493 110.933 110.293 111.36 38.187 0 76.587 0 114.773 0 55.467 0 56.107 0 56.32-58.453s1.067-118.613 0-177.92c0-31.573 10.453-45.44 42.667-45.013 97.493 0.427 192.853 0.427 289.493 0.427 35.413 0 45.44 14.507 44.373 47.573-1.707 64 0 129.28 0 193.92 0 28.373 10.88 45.653 39.040 38.827 33.070-5.941 62.453-18.343 88.013-35.907l-0.76 0.493c43.183-35.416 81.491-73.724 115.763-115.471l1.144-1.436c19.519-22.496 32.412-51.217 35.369-82.825l0.044-0.588c2.987-198.827 2.133-397.867 1.28-597.333 0-69.973-36.693-104.107-110.507-104.747-119.893-0.64-240 0.213-359.893 0.213zM533.333 78.080c112 0 224 0 336 0 30.933 0 45.867 8.747 45.44 42.667q-1.493 192 0 384c0 32.427-13.227 43.947-45.013 43.733q-330.24 0-661.333 0c-33.707 0-46.293-10.88-45.867-45.867 1.493-126.507 1.707-253.013 0-379.52 0-35.2 11.947-45.653 45.867-45.013 108.373 0.853 216.32-0.213 324.907 0zM631.893 828.373v-39.040c0-53.12-5.973-57.813-59.52-54.187-24.747 1.493-35.627 11.947-34.987 36.907 0 36.907 0 73.813 0 110.72s25.173 38.187 53.12 39.253 44.16-10.453 41.6-41.6c-1.28-17.707-0.213-34.987-0.213-52.053z" />
<glyph unicode="&#xe910;" glyph-name="nav-4" d="M746.667-21.333c104.107 188.8 121.813 477.013-287.787 467.413v-232.747l-352.213 352 352 352v-227.627c490.453 12.8 545.067-433.707 288-711.040z" />
<glyph unicode="&#xe911;" glyph-name="nav-5" d="M266.88-21.333c-104.107 188.8-121.813 477.013 287.787 467.413v-232.747l352 352-352 352v-227.627c-490.667 12.8-545.067-433.707-287.787-711.040z" />
<glyph unicode="&#xe912;" glyph-name="nav-6" d="M864 917.333h-704c-64.753-0.121-117.212-52.581-117.333-117.322v-704.012c0.121-64.753 52.581-117.212 117.322-117.333h704.012c64.753 0.121 117.212 52.581 117.333 117.322v704.012c-0.121 64.753-52.581 117.212-117.322 117.333h-0.012zM864 96h-704v704h704z" />
<glyph unicode="&#xe913;" glyph-name="nav-7" d="M805.973 450.987v-250.88c0-29.44-8.747-37.973-38.613-37.973h-503.68c-29.013 0-38.613 9.387-38.613 38.613q0 251.947 0 503.467c0 28.8 10.027 38.827 39.040 38.827h503.893c28.8 0 38.187-9.813 38.187-39.253zM746.667 682.667h-461.867v-461.227h461.867zM922.88 45.227c0 38.827 0 74.453 0 110.293 0 21.333 10.24 34.347 28.373 34.773s30.080-12.16 30.080-33.707c0-45.013 0-90.027 0-135.040 0-23.68-11.307-34.347-35.413-34.56-44.373 0-88.747 0-133.12 0-21.333 0-34.347 11.093-34.56 28.8s12.16 29.227 35.627 29.44zM922.88 858.667h-101.76c-1.165-0.057-2.531-0.089-3.904-0.089-6.863 0-13.536 0.81-19.93 2.34l0.581-0.117c-11.654 2.747-20.196 13.059-20.196 25.365 0 1.515 0.129 2.999 0.378 4.443l-0.022-0.155c-0.005 0.191-0.008 0.415-0.008 0.64 0 13.667 11.079 24.747 24.747 24.747 0.003 0 0.006 0 0.009 0v0c50.987 0 101.973 0 152.747 0 17.28 0 24.96-13.867 25.387-29.44 0-47.147 0-94.080 0-141.227 0.042-0.584 0.065-1.265 0.065-1.951 0-16.141-13.085-29.227-29.227-29.227-0.473 0-0.944 0.011-1.411 0.033l0.066-0.003c-16.64 0-27.307 13.44-27.52 33.707-0.213 36.053 0 72.533 0 110.933zM109.44 45.227h108.8c22.827 0 36.48-11.307 36.053-29.227s-13.653-28.8-34.987-29.013c-44.373 0-88.747 0-133.12 0-24.107 0-34.347 10.88-34.347 34.987q0 66.56 0 133.12c0 23.253 8.96 34.56 27.307 35.2s29.867-11.947 30.080-35.413c0.427-35.84 0.213-71.467 0.213-109.653zM109.44 857.6v-98.773c0-30.72-8.96-44.587-28.587-45.013s-29.013 13.013-29.013 42.667c0 42.667 0 83.627 0 125.44 0 24.107 9.173 33.067 33.067 33.28h135.253c21.333 0 33.28-10.24 34.133-26.88s-11.947-30.080-33.28-30.507c-29.227 0-58.667 0-88.107 0zM689.493 277.333h-346.24v347.093h346.24z" />
<glyph unicode="&#xe914;" glyph-name="nav-8" d="M381.867 275.84h-168.533v594.347h168.533zM808.533 275.84h-168.533v594.56h168.533zM981.333 18.987h-82.987v851.413h82.987zM125.867 870.827v-851.413h-83.2v851.413zM469.333 870.827h83.413v-593.493h-83.413z" />
<glyph unicode="&#xe915;" glyph-name="nav-9" d="M947.84 118.827h-268.16c-13.574 0.058-25.26 8.079-30.633 19.631l-0.087 0.209-259.413 583.68h-313.387c-18.498 0-33.493 14.995-33.493 33.493s14.995 33.493 33.493 33.493h335.36c13.523-0.032 25.16-8.074 30.421-19.63l0.086-0.21 259.413-583.68h246.4c18.498 0 33.493-14.995 33.493-33.493s-14.995-33.493-33.493-33.493v0zM947.84 722.347h-335.36c-18.498 0-33.493 14.995-33.493 33.493s14.995 33.493 33.493 33.493h335.36c18.498 0 33.493-14.995 33.493-33.493s-14.995-33.493-33.493-33.493v0z" />
<glyph unicode="&#xe916;" glyph-name="nav-10" d="M266.24 93.867c25.6 0 48.213 0 70.827 0 1.146-0.089 2.482-0.139 3.83-0.139 29.102 0 52.693 23.592 52.693 52.693 0 1.626-0.074 3.235-0.218 4.824l0.015-0.205c0 187.733 0 375.68 0 563.627 0 11.307-15.787 31.787-25.173 32.427-15.322 1.381-33.142 2.169-51.146 2.169-24.073 0-47.817-1.408-71.155-4.146l2.834 0.271c-69.12-8.747-103.467-55.893-119.040-119.68-9.6-36.48-27.947-49.707-63.147-36.907-11.822 5.654-20.341 16.568-22.579 29.628l-0.034 0.239c-1.28 82.56-1.28 165.76-1.28 248.747 0 26.667 16.427 31.573 38.613 31.36 94.933 0 190.080 0 285.013 0h570.027c39.253 0 44.587-5.12 44.8-44.8 0-73.387 0-146.773 0-220.373 0-21.333 0-44.373-31.36-46.507-39.68-2.987-49.493 3.2-57.173 39.040-17.28 81.707-66.133 121.813-149.333 122.88-22.613 0-45.44 0-68.053 0-41.173 0-47.147-5.547-47.36-46.080 0-81.067 0-161.92 0-242.987v-289.28c0-60.16 17.493-77.653 76.587-77.867h54.827c0-29.44 1.92-56.107 0-82.56s-24.107-26.027-44.373-26.027c-120.96 0-241.92 0-362.667 0-99.2 0-87.68-6.4-87.68 92.8 0.2 6.112 0.813 11.92 1.815 17.593l-0.108-0.74z" />
<glyph unicode="&#xe917;" glyph-name="nav-12" d="M220.373 85.333v746.667h600.107v-746.667zM448 612.907c-0.551 0.037-1.195 0.058-1.844 0.058-16.141 0-29.227-13.085-29.227-29.227 0-0.997 0.050-1.983 0.147-2.954l-0.010 0.122c0-81.707 0-163.2 0-244.693 0.348-10.876 5.489-20.484 13.371-26.826l0.069-0.054c3.95-1.493 8.517-2.358 13.286-2.358 6.613 0 12.838 1.662 18.279 4.592l-0.206-0.101c65.067 40.32 129.493 81.92 193.707 123.52 21.333 14.080 21.333 33.493 0 47.573q-96.64 62.080-193.707 123.733c-3.905 2.324-8.472 4.548-13.227 6.395l-0.64 0.219zM165.76 484.693h-128v146.987h128zM37.547 687.573v144.427h128v-144.213zM37.973 284.587v144.853h128v-144.853zM166.187 229.547v-144.213h-128v144.213zM1002.667 686.72h-126.507v145.28h126.507zM875.947 484.48v147.413h126.72v-147.413zM1002.667 284.16h-126.507v145.28h126.507zM875.947 85.333v144.64h126.72v-144.64z" />
<glyph unicode="&#xe918;" glyph-name="arrow-down" d="M971.947 666.667c-7.885 9.772-19.86 15.971-33.283 15.971-10.126 0-19.429-3.528-26.746-9.421l0.082 0.064-400-320-400 320c-7.405 6.353-17.104 10.22-27.706 10.22-23.564 0-42.667-19.103-42.667-42.667 0-13.899 6.646-26.246 16.933-34.036l0.107-0.077 426.667-341.333s2.133 0 3.2 0c6.353-5.167 14.545-8.297 23.467-8.297s17.113 3.13 23.535 8.351l-0.069-0.054s2.347 0 3.2 0l426.667 341.333c9.772 7.885 15.971 19.86 15.971 33.283 0 10.126-3.528 19.429-9.421 26.746l0.064-0.082z" />
<glyph unicode="&#xe919;" glyph-name="arrow-right" d="M326.613 832v-783.36l432.213 378.24-432.213 405.12z" />
<glyph unicode="&#xe91a;" glyph-name="cloud-up-down" d="M262.187 178.347c-3.988-0.277-8.644-0.434-13.335-0.434-58.763 0-111.751 24.723-149.131 64.334l-0.093 0.1c-38.244 38.735-61.864 91.986-61.864 150.754 0 54.93 20.637 105.040 54.58 143l-0.182-0.207c36.802 41.448 89.906 67.719 149.162 68.691l0.171 0.002c0.515-0.061 1.112-0.096 1.716-0.096 8.292 0 15.049 6.57 15.35 14.789l0.001 0.027c20.95 113.062 113.222 199.39 227.594 211.109l1.099 0.091c9.47 1.255 20.42 1.971 31.537 1.971 82.882 0 156.464-39.819 202.66-101.37l0.47-0.654c6.004-8.427 15.678-13.903 26.639-14.080h0.027c138.901-7.857 248.729-121.776 250.026-261.633l0.001-0.127c0.017-1.135 0.027-2.475 0.027-3.817 0-133.973-96.406-245.43-223.629-268.781l-1.677-0.256c-18.764-2.35-40.479-3.691-62.508-3.691-8.028 0-16.014 0.178-23.955 0.53l1.129-0.040c-7.040 0-10.24 3.413-10.027 10.24v3.2c0 18.133 0 18.773 18.347 18.773 5.687-0.319 12.341-0.5 19.037-0.5 24.128 0 47.706 2.356 70.516 6.851l-2.3-0.378c102.861 27.018 178.248 117.197 182.598 225.661l0.015 0.472c0.142 3.034 0.222 6.592 0.222 10.168 0 125.695-99.638 228.118-224.24 232.594l-0.409 0.012c-7.467 0-15.147 1.707-22.613 2.133s-9.813 5.12-13.013 9.6c-13.278 19.699-28.798 36.576-46.498 50.86l-0.435 0.34c-38.282 31.717-87.901 50.96-142.014 50.96-30.081 0-58.774-5.947-84.966-16.728l1.486 0.542c-77.377-27.986-133.885-95.811-145.151-178.051l-0.129-1.149c-1.1-5.331-2.080-12.037-2.714-18.844l-0.059-0.783c0-10.667-5.973-14.507-16.213-13.227-6.384 0.846-13.765 1.329-21.259 1.329-18.626 0-36.555-2.984-53.335-8.499l1.207 0.343c-73.353-23.312-125.57-90.816-125.57-170.516 0-47.309 18.398-90.321 48.43-122.271l-0.087 0.093c31.76-36.869 78.506-60.070 130.671-60.070 2.287 0 4.563 0.045 6.829 0.133l-0.326-0.010c13.44 0 27.093 0 40.533 0 9.173 0 12.8-3.84 12.16-12.587v-2.133c0-18.347 0-18.56-18.347-18.773zM551.68 370.56c0 18.347 0 36.693 0 55.253 0 7.893-3.2 11.52-11.093 11.307h-21.333c-25.173 0-31.787 11.733-19.2 34.133l45.44 79.573c13.653 23.893 27.307 47.787 41.173 71.467 11.093 19.2 23.253 19.413 34.347 0 29.227-50.56 58.027-101.333 87.040-152.107 1.578-2.672 3.020-5.772 4.154-9.016l0.113-0.371c1.030-2.055 1.632-4.477 1.632-7.041 0-8.837-7.163-16-16-16-0.049 0-0.098 0-0.146 0.001h0.007c-3.768-0.306-8.157-0.48-12.587-0.48s-8.819 0.174-13.161 0.516l0.574-0.036c-9.387 0-13.013-3.627-13.013-13.013 0-34.987 0-70.187 0-105.387 0.019-0.508 0.030-1.104 0.030-1.703 0-8.198-2.065-15.915-5.702-22.657l0.125 0.254c-4.943-9.675-14.828-16.189-26.237-16.213h-0.003c-13.227 0-26.453 0-39.467 0-20.57 0.12-37.213 16.763-37.333 37.322v0.012c0 9.173 0 18.133 0 27.307v26.88zM509.867 305.707c0-18.773 0-37.547 0-56.32 0-8.96 3.413-13.013 12.373-12.587s14.507 0 21.333 0c17.707 0 24.533-11.733 16-27.52s-19.2-33.92-29.013-50.773c-18.56-34.56-39.893-69.333-59.307-103.893-11.307-19.627-23.68-19.413-35.2 0l-85.333 149.333c-1.842 2.695-3.554 5.778-4.976 9.018l-0.144 0.369c-0.836 1.82-1.323 3.949-1.323 6.192 0 8.23 6.565 14.928 14.743 15.141h0.020c3.605 0.256 7.812 0.402 12.053 0.402s8.448-0.146 12.616-0.433l-0.563 0.031c18.133 0 18.133 0 18.133 17.92 0 33.707 0 67.413 0 101.12-0.149 1.223-0.234 2.638-0.234 4.074 0 19.676 15.951 35.627 35.627 35.627 1.435 0 2.851-0.085 4.242-0.25l-0.168 0.016h34.347c0.936 0.099 2.023 0.155 3.123 0.155 17.437 0 31.573-14.136 31.573-31.573 0-1.031-0.049-2.050-0.146-3.056l0.010 0.128c0-9.387 0-18.773 0-28.16v-27.093z" />
<glyph unicode="&#xe91b;" glyph-name="data" d="M512 192l-347.52 256h-57.813l405.333-298.667 405.333 298.667h-57.813l-347.52-256zM128 554.667l384-256 405.333 277.333-405.333 277.333-384-298.667zM512 64l-347.52 256h-57.813l405.333-298.667 405.333 298.667h-57.813l-347.52-256z" />
<glyph unicode="&#xe91c;" glyph-name="delete" d="M742.187-29.653h-458.24c-70.692 0-128 57.308-128 128v0 645.973h713.6v-646.827c-0.481-70.102-57.241-126.786-127.326-127.147h-0.034zM217.813 682.667v-585.173c0-36.524 29.609-66.133 66.133-66.133v0h458.24c36.524 0 66.133 29.609 66.133 66.133v0 585.173zM85.333 744.32h855.467v-61.013h-855.467v61.013zM737.067 693.333h-448v120.533c0 57.143 46.324 103.467 103.467 103.467v0h241.067c57.094-0.121 103.346-46.372 103.467-103.455v-0.011zM350.080 754.347h325.973v59.52c0 23.564-19.103 42.667-42.667 42.667v0h-240.853c-23.564 0-42.667-19.103-42.667-42.667v0zM635.307 581.333h61.013v-386.987h-61.013v386.987zM472.32 571.093h61.013v-386.987h-61.013v386.987zM309.333 571.093h61.013v-386.987h-61.013v386.987z" />
<glyph unicode="&#xe91d;" glyph-name="down" d="M822.187 0h-620.373c-64.281 0.121-116.359 52.199-116.48 116.468v272.652c-0.068 0.825-0.107 1.785-0.107 2.755 0 19.676 15.951 35.627 35.627 35.627s35.627-15.951 35.627-35.627c0-0.97-0.039-1.93-0.115-2.88l0.008 0.125v-272.64c0.121-25.047 20.393-45.319 45.428-45.44h620.385c25.047 0.121 45.319 20.393 45.44 45.428v272.652c-0.068 0.825-0.107 1.785-0.107 2.755 0 19.676 15.951 35.627 35.627 35.627s35.627-15.951 35.627-35.627c0-0.97-0.039-1.93-0.115-2.88l0.008 0.125v-272.64c-0.121-64.281-52.199-116.359-116.468-116.48h-0.012zM510.72 256l-238.507 265.387c-4.915 6.057-7.892 13.862-7.892 22.361 0 19.676 15.951 35.627 35.627 35.627 9.828 0 18.726-3.979 25.172-10.415v0l188.16-209.067 186.88 186.667c6.573 7.65 16.259 12.465 27.070 12.465 19.676 0 35.627-15.951 35.627-35.627 0-10.757-4.768-20.401-12.305-26.934l-0.044-0.038zM464.64 900.693h94.72v-545.28h-94.72v545.28z" />
<glyph unicode="&#xe91e;" glyph-name="equawh" d="M311.68 205.013c-42.922 0.203-84.943 3.221-126.122 8.876l4.949-0.556c-95.157 20.202-165.518 103.518-165.518 203.268 0 7.301 0.377 14.514 1.112 21.621l-0.075-0.89c11.058 103.716 96.237 184.327 201.013 188.149l0.374 0.011c62.72 1.28 125.44 0 188.16 0 1.021 0.072 2.212 0.113 3.413 0.113 28.395 0 51.413-23.019 51.413-51.413 0-0.040 0-0.080 0-0.12v0.006c0.003-0.206 0.005-0.45 0.005-0.693 0-28.63-23.21-51.84-51.84-51.84-0.827 0-1.649 0.019-2.467 0.058l0.116-0.004c-54.4 0-108.8 0-162.987 0-20.808-0.189-40.735-3.688-59.368-9.994l1.341 0.394c-38.907-14.814-66.048-51.808-66.048-95.14 0-4.969 0.357-9.854 1.046-14.632l-0.065 0.546c5.977-47.988 44.281-85.415 92.171-89.995l0.416-0.032c62.72-2.56 125.44-1.28 188.16-1.493 1.77 0.204 3.821 0.321 5.899 0.321 21.222 0 39.605-12.152 48.572-29.877l0.143-0.311c3.226-6.548 5.113-14.254 5.113-22.4 0-28.435-22.989-51.501-51.394-51.626h-106.679v-2.133zM711.68 207.36c-34.773 0-69.333 0-103.893 0-28.17 0.596-50.777 23.572-50.777 51.829 0 0.229 0.001 0.457 0.004 0.686v-0.035c0.907 27.595 22.985 49.747 50.465 50.771l0.095 0.003c2.677 0.153 5.808 0.24 8.96 0.24s6.283-0.087 9.392-0.259l-0.432 0.019c55.467 0 111.147 0 166.613 0 0.317-0.003 0.692-0.005 1.067-0.005 57.971 0 104.965 46.995 104.965 104.965 0 57.596-46.388 104.357-103.842 104.96h-0.057c-60.373 0-120.747 0-181.12 0-0.98-0.065-2.124-0.103-3.276-0.103-28.866 0-52.267 23.401-52.267 52.267 0 5.362 0.808 10.536 2.308 15.406l-0.098-0.37c4.586 19.945 21.779 34.739 42.573 35.624l0.093 0.003c22.896 0.908 49.773 1.426 76.771 1.426 52.937 0 105.41-1.989 157.347-5.897l-6.918 0.418c89.857-13.67 159.571-85.052 170.569-174.598l0.098-0.976c1.264-8.611 1.986-18.552 1.986-28.662 0-83.041-48.713-154.704-119.121-187.974l-1.265-0.537c-27.81-13.471-60.485-21.345-95-21.345-0.802 0-1.602 0.004-2.402 0.013l0.122-0.001h-72.96zM515.2 467.84h200.747c0.624 0.028 1.356 0.044 2.092 0.044 20.092 0 37.388-11.972 45.142-29.172l0.126-0.312c3.868-6.431 6.156-14.194 6.156-22.49 0-12.005-4.791-22.892-12.565-30.852l0.008 0.009c-10.837-10.897-25.214-18.264-41.259-20.233l-0.341-0.034c-134.187-1.493-268.587-1.067-402.987 0-28.129 0.657-50.68 23.615-50.68 51.84 0 28.638 23.216 51.853 51.853 51.853 0.413 0 0.824-0.005 1.234-0.014l-0.061 0.001c66.773 0 133.76 0 200.533 0z" />
<glyph unicode="&#xe91f;" glyph-name="floder" d="M985.167 272.036c17.885-75.429-28.763-151.075-104.192-168.96s-151.075 28.763-168.96 104.192c-17.885 75.429 28.763 151.075 104.192 168.96s151.075-28.763 168.96-104.192zM851.2 448c0.447 0.003 0.975 0.005 1.504 0.005 33.618 0 65.395-7.878 93.587-21.89l-1.225 0.551v91.947h-868.267v-323.413c0.121-41.66 33.86-75.399 75.509-75.52h523.318c-22.208 32.914-35.449 73.471-35.449 117.12 0 116.58 94.456 211.099 211.013 211.2h0.010zM499.2 589.013h445.867v11.733c-0.121 45.269-36.847 81.92-82.133 81.92 0 0 0 0 0 0h-363.733v65.493c0 41.709-33.811 75.52-75.52 75.52v0h-271.36c-41.709 0-75.52-33.811-75.52-75.52v0-159.147h422.4z" />
<glyph unicode="&#xe920;" glyph-name="full-screen" d="M167.893 807.68v-33.92c0-33.707 0-67.413 0-101.12 0.185-1.601 0.291-3.456 0.291-5.336 0-27.099-21.968-49.067-49.067-49.067-2.284 0-4.532 0.156-6.733 0.458l0.255-0.029h-40.107v14.933c0 73.6 0 146.987 0 220.373-0.058 0.873-0.091 1.893-0.091 2.92 0 26.038 21.108 47.147 47.147 47.147 1.308 0 2.604-0.053 3.885-0.158l-0.168 0.011h234.667c0.564-8.737 0.885-18.944 0.885-29.227s-0.321-20.489-0.954-30.612l0.069 1.385c-4.154-21.407-22.75-37.348-45.069-37.348-2.238 0-4.439 0.16-6.591 0.47l0.246-0.029c-40.107 0-80.427 0-120.747 0-5.333 0-10.667-0.64-17.92-0.853zM72.533 293.333c19.2 0 36.907 1.067 54.187 0 23.285-2.526 41.25-22.078 41.25-45.826 0-1.818-0.105-3.612-0.31-5.375l0.020 0.215c0-35.413 0-70.613 0-106.667v-32.853h51.413c30.293 0 60.373 0 90.667 0 0.706 0.039 1.532 0.061 2.363 0.061 24.667 0 44.744-19.655 45.422-44.159l0.001-0.063c1.28-16 0-32 0-49.28-4.907 0-9.173-1.067-13.44-1.067-71.467 0-142.933 0-213.333-1.28-1.991-0.268-4.292-0.42-6.629-0.42-28.984 0-52.48 23.496-52.48 52.48 0 1.725 0.083 3.432 0.246 5.114l-0.017-0.214c1.92 69.973 0 139.947 0 209.92zM873.173 808.533c-29.013 0-56.107 0-83.413 0-21.333 0-42.667 0-64 0-23.874 1.504-42.667 21.235-42.667 45.355 0 0.030 0 0.060 0 0.089v-0.005c0 15.573 0 31.147 0 49.28h234.24c1.244 0.121 2.689 0.19 4.15 0.19 25.096 0 45.44-20.344 45.44-45.44 0-1.043-0.035-2.077-0.104-3.102l0.007 0.139c0-78.080 0-156.16 0-237.227-24.96 1.28-49.92-6.187-72.96 7.893-12.925 7.961-21.412 22.035-21.412 38.091 0 0.934 0.029 1.862 0.085 2.782l-0.006-0.126v142.080zM967.467 293.76v-77.867c0-52.907 0-105.6 0-158.507 0.16-1.416 0.252-3.057 0.252-4.72 0-24.507-19.867-44.373-44.373-44.373-0.539 0-1.075 0.010-1.609 0.029l0.077-0.002c-78.933 0-157.867 0-238.080 0-0.614 8.837-0.964 19.151-0.964 29.547s0.35 20.71 1.039 30.932l-0.075-1.385c4.014 20.593 21.909 35.922 43.385 35.922 0.948 0 1.889-0.030 2.823-0.089l-0.128 0.006c41.173 0 82.56 0 123.733 0h18.347c0 6.187 0 11.52 0 16.853 0 38.187 1.493 76.587 0 114.773-0.429 2.494-0.674 5.368-0.674 8.298 0 28.395 23.019 51.413 51.413 51.413 3.255 0 6.439-0.302 9.526-0.881l-0.319 0.050c11.733-0.853 22.827 0 35.627 0z" />
<glyph unicode="&#xe921;" glyph-name="play-1" d="M939.733 434.773q0-200.533 0-401.28c0.34-2.373 0.534-5.113 0.534-7.898 0-22.031-12.144-41.226-30.103-51.256l-0.298-0.153c-7.443-3.741-16.219-5.931-25.507-5.931-14.81 0-28.319 5.569-38.548 14.726l0.055-0.049q-305.707 199.68-612.693 398.293l-9.813 6.613c-42.667 28.16-42.667 71.68 0 99.627 62.293 41.387 125.227 81.493 187.947 122.027q215.467 140.16 431.147 279.893c9.534 7.1 20.701 12.663 32.78 16.043l0.713 0.17c3.217 0.687 6.912 1.080 10.7 1.080 29.573 0 53.547-23.974 53.547-53.547 0-1.808-0.090-3.594-0.265-5.356l0.018 0.223c0-51.2 0-102.4 0-153.387zM148.053-31.147h-13.44c-24.978 0-45.227 20.249-45.227 45.227v845.013c0 24.978 20.249 45.227 45.227 45.227h13.44c24.978 0 45.227-20.249 45.227-45.227v-845.013c0-24.978-20.249-45.227-45.227-45.227z" />
<glyph unicode="&#xe922;" glyph-name="play-2" d="M810.667 434.773c0-135.253 0-270.72 0-405.333 0.306-2.275 0.481-4.906 0.481-7.577 0-22.395-12.281-41.923-30.476-52.214l-0.299-0.155c-7.405-3.591-16.107-5.689-25.299-5.689-14.836 0-28.395 5.467-38.772 14.497l0.072-0.061q-311.040 200.96-621.227 402.347l-9.813 6.613c-42.667 28.587-42.667 72.533 0 100.907 64 42.667 126.72 82.347 190.080 123.52q218.24 141.653 436.48 283.307c9.892 7.237 21.51 12.823 34.070 16.060l0.703 0.154c3.079 0.624 6.619 0.981 10.242 0.981 29.809 0 53.973-24.165 53.973-53.973 0-1.697-0.078-3.376-0.232-5.033l0.016 0.213c0-51.84 0-103.467 0-155.307zM940.16-36.907h-1.067c-28.748 0-52.053 23.305-52.053 52.053v842.667c0 28.748 23.305 52.053 52.053 52.053h1.067c28.748 0 52.053-23.305 52.053-52.053v-842.667c0-28.748-23.305-52.053-52.053-52.053z" />
<glyph unicode="&#xe923;" glyph-name="play-3" d="M136.533 439.893c0 133.76 0 267.52 0 401.28-0.329 2.338-0.517 5.038-0.517 7.782 0 22.060 12.132 41.286 30.087 51.372l0.296 0.153c7.443 3.741 16.219 5.931 25.507 5.931 14.81 0 28.319-5.569 38.548-14.726l-0.055 0.049q306.56-199.68 613.333-398.293l9.813-6.613c41.387-28.16 42.667-71.68 0-99.627-62.293-41.387-125.227-81.493-187.947-122.027q-216.32-140.16-430.933-279.893c-9.6-7.1-20.839-12.663-32.987-16.042l-0.72-0.171c-3.289-0.721-7.067-1.134-10.941-1.134-29.455 0-53.333 23.878-53.333 53.333 0 1.902 0.1 3.781 0.294 5.632l-0.020-0.231c0 51.2 0 102.4 0 153.387z" />
<glyph unicode="&#xe924;" glyph-name="play-4" d="M234.667 439.893c0 135.253 0 270.72 0 405.333-0.306 2.275-0.481 4.906-0.481 7.577 0 22.395 12.281 41.923 30.476 52.214l0.299 0.155c7.405 3.591 16.107 5.689 25.299 5.689 14.836 0 28.395-5.467 38.772-14.497l-0.072 0.061q311.040-201.173 621.653-402.347l9.813-6.613c42.667-28.587 42.667-72.533 0-100.907-64-42.667-126.72-82.347-190.293-123.52q-217.6-141.867-436.267-284.373c-9.653-7.145-20.97-12.715-33.21-16.049l-0.71-0.165c-3.092-0.629-6.645-0.989-10.283-0.989-29.809 0-53.973 24.165-53.973 53.973 0 1.851 0.093 3.68 0.275 5.482l-0.019-0.227c0 51.84 0 103.467 0 155.307zM105.6 911.573h1.067c28.748 0 52.053-23.305 52.053-52.053v-842.667c0-28.748-23.305-52.053-52.053-52.053h-1.067c-28.748 0-52.053 23.305-52.053 52.053v842.667c0 28.748 23.305 52.053 52.053 52.053z" />
<glyph unicode="&#xe925;" glyph-name="play-5" d="M89.6 439.893c0 133.76 0 267.52 0 401.28-0.329 2.338-0.517 5.038-0.517 7.782 0 22.060 12.132 41.286 30.087 51.372l0.296 0.153c7.443 3.741 16.219 5.931 25.507 5.931 14.81 0 28.319-5.569 38.548-14.726l-0.055 0.049q306.56-199.68 613.333-398.293l9.813-6.613c41.387-28.16 42.667-71.68 0-99.627-62.293-41.387-125.227-81.493-187.947-122.027q-216.32-140.16-431.787-279.893c-9.6-7.1-20.839-12.663-32.987-16.042l-0.72-0.171c-3.289-0.721-7.067-1.134-10.941-1.134-29.455 0-53.333 23.878-53.333 53.333 0 1.902 0.1 3.781 0.294 5.632l-0.020-0.231c0 51.2 0 102.4 0 153.387zM881.067 905.813h13.44c24.978 0 45.227-20.249 45.227-45.227v-845.013c0-24.978-20.249-45.227-45.227-45.227h-13.44c-24.978 0-45.227 20.249-45.227 45.227v845.013c0 24.978 20.249 45.227 45.227 45.227z" />
<glyph unicode="&#xe926;" glyph-name="plus" d="M435.2 928h142.72v-970.667h-142.72v970.667zM992 514.133v-142.72h-970.667v142.72h970.667z" />
<glyph unicode="&#xe927;" glyph-name="search" d="M439.040 124.587c-218.911 0-396.373 177.462-396.373 396.373s177.462 396.373 396.373 396.373c218.911 0 396.373-177.462 396.373-396.373v0c-0.243-218.813-177.56-396.131-396.35-396.373h-0.023zM439.040 750.507c-0.063 0-0.138 0-0.213 0-126.775 0-229.547-102.772-229.547-229.547s102.772-229.547 229.547-229.547c126.775 0 229.547 102.772 229.547 229.547v0c-0.242 126.603-102.748 229.183-229.299 229.547h-0.035zM897.92-21.333c-0.029 0-0.063 0-0.098 0-23.057 0-43.923 9.379-58.992 24.53l-208.431 208.431c-15.096 15.096-24.433 35.951-24.433 58.987 0 46.071 37.348 83.42 83.42 83.42 23.036 0 43.891-9.337 58.987-24.433l208.427-208.427c15.149-15.072 24.525-35.934 24.525-58.987s-9.375-43.915-24.521-58.983l-0.003-0.003c-14.942-15.149-35.695-24.534-58.64-24.534-0.084 0-0.169 0-0.253 0h0.013z" />
<glyph unicode="&#xe928;" glyph-name="search1" d="M38.4 506.453c6.4 165.76 80.427 291.413 228.693 366.293 53.94 27.806 117.719 44.108 185.305 44.108 194.613 0 357.657-135.162 400.382-316.734l0.553-2.787c7.319-28.5 11.52-61.218 11.52-94.917 0-64.958-15.609-126.271-43.281-180.392l1.041 2.242c-2.258-3.332-3.605-7.442-3.605-11.866 0-6.756 3.141-12.779 8.042-16.688l0.043-0.033c39.467-39.253 78.293-79.36 117.12-119.253 23.358-21.62 37.932-52.441 37.932-86.666 0-65.155-52.818-117.973-117.973-117.973-34.066 0-64.759 14.439-86.294 37.53l-0.064 0.070c-40.32 39.253-80 79.36-119.467 119.68-3.382 4.481-8.698 7.348-14.684 7.348-3.926 0-7.564-1.233-10.548-3.333l0.058 0.039c-52.99-26.494-115.444-42.003-181.519-42.003-212.126 0-386.92 159.836-410.517 365.643l-0.178 1.907c-1.92 15.787-1.707 32-2.56 47.787zM746.667 503.040c0.004 0.57 0.006 1.245 0.006 1.92 0 162.946-132.094 295.040-295.040 295.040s-295.040-132.094-295.040-295.040c0-162.794 131.847-294.793 294.583-295.040h0.024c162.217 0.353 293.781 131.093 295.465 292.96l0.001 0.16zM275.84 564.053h351.787v-117.333l-351.787-1.067z" />
<glyph unicode="&#xe929;" glyph-name="search2" d="M42.667 510.933c6.4 163.84 79.573 288.213 226.133 362.667 53.42 27.586 116.596 43.76 183.55 43.76 192.392 0 353.592-133.549 395.954-313.001l0.549-2.759c7.179-28.107 11.299-60.375 11.299-93.604 0-64.344-15.448-125.080-42.837-178.701l1.032 2.226c-2.247-3.326-3.586-7.426-3.586-11.839 0-6.652 3.044-12.592 7.815-16.505l0.038-0.030c39.253-38.827 77.653-78.293 116.053-117.76 22.622-21.502 36.694-51.815 36.694-85.415 0-32.127-12.865-61.249-33.725-82.496l0.018 0.018c-21.068-21.212-50.251-34.342-82.501-34.342-33.499 0-63.689 14.167-84.906 36.837l-0.060 0.065c-40.107 38.827-79.36 78.507-118.187 118.4-3.342 4.445-8.606 7.289-14.534 7.289-3.998 0-7.693-1.294-10.691-3.485l0.051 0.036c-52.398-26.168-114.146-41.484-179.471-41.484-209.585 0-382.348 157.658-406.16 360.848l-0.183 1.916c-2.347 15.787-2.347 31.573-2.347 47.36zM742.613 507.52c0.003 0.507 0.005 1.106 0.005 1.707 0 161.179-130.661 291.84-291.84 291.84s-291.84-130.661-291.84-291.84c0-161.179 130.661-291.84 291.84-291.84 0.073 0 0.146 0 0.22 0h-0.011c160.249 0.715 290.064 130.006 291.626 289.985l0.001 0.149zM277.333 567.893h115.2v114.773h116.267v-114.773h116.48v-116.053h-114.773v-116.48h-117.76v115.2h-115.413z" />
<glyph unicode="&#xe92a;" glyph-name="write" d="M610.347 801.28c-31.36-31.147-58.667-59.093-86.827-85.333-5.124-3.504-11.455-5.595-18.274-5.595-0.626 0-1.248 0.018-1.865 0.052l0.086-0.004h-378.88v-646.4h674.56v21.333c0 121.173 0 242.133 0 362.667 0.647 10.382 4.913 19.66 11.54 26.688l-0.020-0.021c24.747 26.667 51.2 52.053 80.213 81.493v-21.333c0-158.507 0-317.013 0-475.307 0.107-1.578 0.169-3.42 0.169-5.276 0-45.597-36.963-82.56-82.56-82.56-1.786 0-3.558 0.057-5.315 0.168l0.24-0.012q-341.333 0-684.373 0c-2.362-0.248-5.102-0.39-7.876-0.39-44.065 0-79.787 35.722-79.787 79.787 0 2.842 0.149 5.65 0.438 8.415l-0.029-0.345q0 329.387 0 658.773c-0.136 1.724-0.214 3.733-0.214 5.761 0 42.887 34.767 77.653 77.653 77.653 2.027 0 4.036-0.078 6.025-0.23l-0.264 0.016q237.867 0 475.307 0zM736.213 793.173l128-128-303.787-305.707c-41.387 42.667-85.333 86.613-128 129.92l303.787 303.787zM371.627 436.48l134.827-135.893c-18.56-17.28-33.067-39.68-62.933-45.013-33.92-5.973-66.987-15.573-100.267-23.467-25.387-5.76-42.667 8.747-37.12 34.347 7.764 46.171 17.253 85.777 29.105 124.348l-1.799-6.801c10.492 19.913 23.216 36.993 38.172 51.826l0.014 0.014zM922.667 717.013l-133.333 132.693c19.2 19.627 39.253 42.667 61.227 61.44 4.352 3.784 10.075 6.090 16.337 6.090 7.634 0 14.468-3.427 19.046-8.827l0.030-0.036q47.787-46.507 93.867-93.44c5.889-4.887 9.611-12.208 9.611-20.399 0-7.487-3.11-14.247-8.109-19.060l-0.008-0.008c-18.987-21.333-39.68-39.68-58.667-58.453z" />
<glyph unicode="&#xe92b;" glyph-name="nav-sub-circle" d="M517.333 922.667c-259.206 0-469.333-210.128-469.333-469.333s210.128-469.333 469.333-469.333c259.206 0 469.333 210.128 469.333 469.333v0c0 259.206-210.128 469.333-469.333 469.333v0zM517.333 48c-223.859 0-405.333 181.474-405.333 405.333s181.474 405.333 405.333 405.333c223.859 0 405.333-181.474 405.333-405.333v0c0-223.859-181.474-405.333-405.333-405.333v0z" />
<glyph unicode="&#xe92c;" glyph-name="nav-sub-connectline" d="M806.827 213.333v-77.653h-107.52l-354.987 696.107h-127.147v64.213h-153.173v-192h153.173v72.533h93.44l354.773-696.107h141.44v-80.427h153.173v213.333h-153.173z" />
<glyph unicode="&#xe92d;" glyph-name="nav-sub-horizontal" d="M21.333 512h981.333v-64h-981.333v64z" />
<glyph unicode="&#xe92e;" glyph-name="nav-sub-rectangle" d="M213.333 896v-896h554.667v896zM704 64h-426.667v768h426.667z" />
<glyph unicode="&#xe92f;" glyph-name="nav-sub-square" d="M64 896v-896h896v896zM896 64h-768v768h768z" />
<glyph unicode="&#xe930;" glyph-name="nav-sub-vertical" d="M544 928v-981.333h-64v981.333h64z" />
<glyph unicode="&#xe931;" glyph-name="arr-btb" d="M640 618.667c0-42.667 0-85.333 0-129.28 0-21.333 7.893-29.44 28.373-28.587 16.853 0 33.707 0 50.347 0 40.747-1.493 56.32-26.667 36.907-62.933-21.333-39.467-44.16-77.653-66.347-116.48-46.080-79.787-91.947-159.36-137.813-238.72-26.24-45.013-54.613-44.373-81.067 0l-195.627 341.333c-4.039 6.591-7.971 14.307-11.313 22.33l-0.42 1.137c-2.723 4.863-4.327 10.671-4.327 16.854 0 19.323 15.664 34.987 34.987 34.987 0.096 0 0.193 0 0.289-0.001h-0.015c11.529 1 24.947 1.569 38.497 1.569 5.817 0 11.61-0.105 17.377-0.313l-0.834 0.024c41.6 0 42.667 0 42.667 40.96 0 77.44 0 154.88 0 232.32 0 58.027 32 89.813 90.453 90.667 26.453 0 52.693 0 79.147 0 50.347 0 77.653-28.16 79.147-79.147 0-21.333 0-42.667 0-64v-62.72z" />
<glyph unicode="&#xe932;" glyph-name="arr-tb" d="M384 215.68c0 42.667 0 85.333 0 129.28 0 20.267-7.893 29.44-28.373 28.587-16.853 0-33.707 0-50.347 0-40.747 1.493-56.32 26.453-36.907 62.933s44.16 77.653 66.347 116.267c45.227 79.787 91.947 159.573 136.96 238.72 26.24 45.013 54.613 44.587 81.067 0q97.92-170.667 195.627-341.333c4.093-6.624 8.028-14.342 11.338-22.382l0.395-1.084c2.743-4.859 4.359-10.669 4.359-16.857 0-19.205-15.569-34.773-34.773-34.773-0.183 0-0.365 0.001-0.547 0.004h0.027c-12.501-1.058-27.053-1.662-41.746-1.662-4.675 0-9.336 0.061-13.982 0.182l0.687-0.014c-42.667 0-42.667 0-42.667-40.747 0-77.44 0-154.88 0-232.32 0-58.027-32-89.813-90.453-90.667-26.453 0-52.693 0-79.147 0-50.347 0-77.653 27.947-79.147 79.147 0 21.333 0 42.667 0 64v62.72z" />
<glyph unicode="&#xe933;" glyph-name="arr-top" d="M52.053 272c7.885-9.772 19.86-15.971 33.283-15.971 10.126 0 19.429 3.528 26.746 9.421l-0.082-0.064 400 320 400-320c7.405-6.353 17.104-10.22 27.706-10.22 23.564 0 42.667 19.103 42.667 42.667 0 13.899-6.646 26.246-16.933 34.036l-0.107 0.077-426.667 341.333s-2.133 0-3.2 0c-6.353 5.167-14.545 8.297-23.467 8.297s-17.113-3.13-23.535-8.351l0.069 0.054s-2.347 0-3.2 0l-426.667-341.333c-9.772-7.885-15.971-19.86-15.971-33.283 0-10.126 3.528-19.429 9.421-26.746l-0.064 0.082z" />
<glyph unicode="&#xe934;" glyph-name="icon-c" d="M874.667 426.667c0-200.295-162.371-362.667-362.667-362.667s-362.667 162.371-362.667 362.667c0 200.295 162.371 362.667 362.667 362.667s362.667-162.371 362.667-362.667z" />
<glyph unicode="&#xe935;" glyph-name="icon-clos" d="M867.2 590.507l-178.133 178.347-178.347-178.347-178.133 178.347-178.347-178.347 178.347-178.133-172.8-172.8 178.133-178.347 178.347 178.347 178.133-178.347 172.8 172.8-178.133 178.347 178.133 178.133z" />
<glyph unicode="&#xe936;" glyph-name="icon-cn" d="M85.333 682.667h853.333v-512h-853.333v512z" />
<glyph unicode="&#xe937;" glyph-name="icon-v" d="M149.333 789.333h682.667v-682.667h-682.667v682.667z" />
<glyph unicode="&#xe938;" glyph-name="icon-wh" d="M938.667 853.333v-300.8h-835.2v300.8h835.2zM981.333 896h-920.533v-386.133h920.533v386.133zM938.667 359.253v-332.587h-410.667v332.587h410.667zM981.333 401.92h-496v-417.92h496v417.92zM362.667 360.107v-333.653h-259.2v333.653h259.2zM405.333 402.773h-344.533v-418.987h344.533v418.987z" />
<glyph unicode="&#xe939;" glyph-name="icon-abc" d="M601.6 592.427c52.48-24.32 70.827-58.24 60.8-108.16-7.467-36.693-37.547-64-85.333-67.2-23.965-1.566-51.959-2.459-80.162-2.459-19.525 0-38.951 0.428-58.267 1.275l2.749-0.096c-38.187 0-38.827 1.92-39.467 40.107-1.28 91.947-1.707 184.107-3.2 276.053 0 14.933 4.48 19.627 19.413 20.053 17.137 1.863 37.014 2.926 57.139 2.926 30.133 0 59.709-2.383 88.55-6.97l-3.182 0.417c7.868-1.675 14.511-3.587 20.964-5.898l-1.124 0.352c31.168-7.343 54.957-32.278 60.516-63.519l0.071-0.481c4.48-34.987-1.067-66.987-39.467-86.4zM487.040 558.080v-77.653c20.75 0.275 40.86 1.74 60.616 4.331l-2.589-0.278c16.425 2.772 28.78 16.889 28.78 33.893 0 16.316-11.376 29.974-26.629 33.476l-0.231 0.045c-16.956 2.818-37.587 5.026-58.511 6.126l-1.436 0.060zM482.56 615.893c19.2 2.773 36.053 3.84 52.48 7.893 12.25 1.727 21.57 12.139 21.57 24.729 0 1.21-0.086 2.4-0.253 3.565l0.016-0.133c-1.951 11.719-8.444 21.64-17.572 28.070l-0.135 0.090c-13.483 4.75-29.030 7.494-45.218 7.494-0.978 0-1.954-0.010-2.928-0.030l0.146 0.002c-2.347 0-7.68-6.187-7.893-9.813-0.64-18.773-0.213-37.76-0.213-61.867zM29.227 418.133c21.333 65.493 39.68 128 59.52 188.8 14.293 44.8 29.653 89.387 43.947 134.187 1.709 8.382 9.021 14.6 17.786 14.6 0.648 0 1.289-0.034 1.92-0.1l-0.079 0.007c28.16 0 56.32 2.133 85.333 1.92 6.889-0.857 12.684-4.889 15.945-10.563l0.055-0.104c36.267-106.667 71.893-213.333 106.667-320 0-1.493 0-3.413 1.28-8.747-15.573-1.92-30.933-4.693-46.507-5.547-42.667-2.56-42.667-2.133-58.027 39.893-10.667 30.933-10.667 30.933-42.667 30.933-18.56 0-36.907-1.067-55.253 0-12.587 0-17.067-4.48-20.053-15.36-4.725-18.773-9.62-34.14-15.306-49.118l1.012 3.038c-1.707-4.267-7.253-10.24-10.88-10.027-28.587 1.707-55.040 4.053-84.693 6.187zM157.227 552.32h77.44l-38.827 128zM946.987 516.693c11.947-21.333 23.893-39.893 34.133-59.947 1.493-2.987-4.693-12.16-9.387-15.573-32.092-22.676-72.024-36.245-115.125-36.245-21.902 0-42.987 3.504-62.722 9.982l1.421-0.404c15.787 23.68 23.040 47.573-2.56 66.133s-45.013 2.56-64-17.493c-22.32 29.959-36.040 67.483-36.903 108.171l-0.003 0.203c-6.187 111.787 66.133 187.947 178.133 188.16 1.76 0.055 3.83 0.086 5.908 0.086 33.073 0 64.298-7.914 91.884-21.951l-1.152 0.532c12.16-6.4 17.067-13.867 10.88-27.093-8.747-18.347-16.853-37.12-24.747-54.613-21.333 7.040-37.973 14.293-55.467 18.56-7.479 2.241-16.073 3.531-24.968 3.531-49.72 0-90.027-40.306-90.027-90.027 0-2.219 0.080-4.418 0.238-6.597l-0.017 0.292c0-78.507 65.28-118.187 135.467-82.56 8.96 4.48 16.64 9.6 29.013 16.853zM485.76 182.187c3.95 5.986 7.809 11.133 11.943 16.042l-0.209-0.255 247.040 256c4.053 4.267 7.68 10.667 12.373 11.733 8.533 1.92 21.333 4.267 26.24 0s6.187-17.707 6.187-26.453c0-3.2-3.84-6.827-6.187-10.027l-245.547-337.28c-2.773-3.84-5.547-7.467-8.533-10.88-9.421-11.826-23.821-19.339-39.976-19.339-17.997 0-33.815 9.324-42.889 23.404l-0.121 0.201c-31.787 46.293-62.080 93.867-93.013 140.8-3.613 3.914-5.829 9.165-5.829 14.933 0 12.174 9.869 22.043 22.043 22.043 6.405 0 12.172-2.732 16.2-7.094l0.014-0.015z" />
<glyph unicode="&#xe93a;" glyph-name="icon-triangle" d="M558.293 820.907c-3.697 6.661-10.688 11.095-18.716 11.095-0.095 0-0.19-0.001-0.285-0.002h0.014c-0.143 0.003-0.312 0.005-0.482 0.005-8.029 0-15.022-4.435-18.662-10.99l-0.056-0.109-401.28-692.907c-2.217-3.311-3.538-7.384-3.538-11.767 0-11.782 9.551-21.333 21.333-21.333 0.419 0 0.836 0.012 1.249 0.036l-0.057-0.003h802.773c0.107-0.002 0.234-0.003 0.361-0.003 8.282 0 15.462 4.72 18.997 11.616l0.056 0.12c1.666 3.091 2.646 6.764 2.646 10.667s-0.979 7.576-2.705 10.788l0.060-0.122zM176 138.24l362.667 627.2 362.667-627.2z" />
<glyph unicode="&#xe93b;" glyph-name="icon-hand" d="M407.253 302.72h-41.387s0 224.213 0 229.12c-1.265 18.051-16.219 32.215-34.48 32.215-0.103 0-0.206 0-0.309-0.001h0.016c-18.42-0.056-33.507-14.252-34.978-32.301l-0.008-0.126c0-5.973 0-227.627 0-228.907h-41.813c0 85.333 0 229.76 0 232.32 3.502 39.365 36.325 69.996 76.303 69.996 40.654 0 73.91-31.677 76.433-71.695l0.011-0.221zM406.827 480.427h-41.387c0 57.173 0 341.333 0 344.747 3.412 39.448 36.277 70.177 76.318 70.177 40.568 0 73.769-31.542 76.416-71.439l0.012-0.231v-230.4h-41.173c0 1.067 0 225.28 0 229.12-1.265 18.051-16.219 32.215-34.48 32.215-0.103 0-0.206 0-0.309-0.001h0.016c-18.42-0.056-33.507-14.252-34.978-32.301l-0.008-0.126c-0.213-6.613-0.427-340.267-0.427-341.76zM741.12 448h-41.387v187.307c0 19.323-15.664 34.987-34.987 34.987s-34.987-15.664-34.987-34.987v0-138.027h-41.6c0 1.493 0 138.453 0 141.44 2.64 40.027 35.754 71.494 76.217 71.494 41.139 0 74.681-32.527 76.311-73.267l0.005-0.148zM629.76 497.28h-41.387c0 1.067 0 224.213 0 229.12-1.265 18.051-16.219 32.215-34.48 32.215-0.103 0-0.206 0-0.309-0.001h0.016c-0.076 0.001-0.165 0.001-0.255 0.001-18.723 0-34.010-14.706-34.942-33.198l-0.003-0.083v-228.053h-41.6c0 23.467 0 229.333 0 232.107 3.412 39.448 36.277 70.177 76.318 70.177 40.568 0 73.769-31.542 76.416-71.439l0.012-0.231zM554.667 2.773c-166.030 0.243-300.557 134.77-300.8 300.777v0.023h41.387c1.785-142.728 117.905-257.744 260.888-257.744 123.765 0 227.403 86.176 254.183 201.798l0.343 1.76c0 22.827 0 221.44 0 226.773-1.46 18.112-16.518 32.257-34.88 32.257s-33.42-14.145-34.872-32.133l-0.008-0.124c-1.017-10.927-10.141-19.414-21.247-19.414-0.030 0-0.061 0-0.091 0h0.005c-14.72 0-18.773 9.387-19.84 22.4v0 1.493c0 4.267 0 9.173 0 14.080l4.693 4.907c10.945 29.645 38.959 50.4 71.821 50.4 40.547 0 73.715-31.598 76.221-71.513l0.011-0.22s0-1.707 0-230.4c0.050-0.639 0.079-1.383 0.079-2.133s-0.029-1.495-0.085-2.231l0.006 0.098c-30.020-138.567-151.576-240.854-297.024-240.854-0.278 0-0.555 0-0.832 0.001h0.043z" />
</font>
</defs>
</svg>
